<svg width="122" height="122" viewBox="0 0 122 122" fill="none" xmlns="http://www.w3.org/2000/svg">
<path d="M61.375 8C75.5309 8 89.1071 13.6234 99.1168 23.6332C109.127 33.6429 114.75 47.2191 114.75 61.375C114.75 75.5309 109.127 89.1071 99.1168 99.1168C89.1071 109.127 75.5309 114.75 61.375 114.75C47.2191 114.75 33.6429 109.127 23.6332 99.1168C13.6234 89.1071 8 75.5309 8 61.375C8 47.2191 13.6234 33.6429 23.6332 23.6332C33.6429 13.6234 47.2191 8 61.375 8ZM61.375 107.125C73.5087 107.125 85.1453 102.305 93.7251 93.7251C102.305 85.1453 107.125 73.5087 107.125 61.375C107.125 49.2413 102.305 37.6047 93.7251 29.0249C85.1453 20.4451 73.5087 15.625 61.375 15.625C49.2413 15.625 37.6047 20.4451 29.0249 29.0249C20.4451 37.6047 15.625 49.2413 15.625 61.375C15.625 73.5087 20.4451 85.1453 29.0249 93.7251C37.6047 102.305 49.2413 107.125 61.375 107.125ZM55.6562 77.6239L80.0334 61.375L55.6562 45.1261V77.6239ZM56.922 36.7996L86.6442 56.617C87.4275 57.1393 88.0697 57.8468 88.5138 58.6768C88.958 59.5068 89.1904 60.4336 89.1904 61.375C89.1904 62.3164 88.958 63.2432 88.5138 64.0732C88.0697 64.9032 87.4275 65.6107 86.6442 66.133L56.922 85.9504C56.0608 86.5245 55.0599 86.8541 54.0261 86.904C52.9922 86.954 51.9642 86.7225 51.0516 86.2341C50.1391 85.7457 49.3761 85.0188 48.8442 84.1309C48.3123 83.243 48.0313 82.2274 48.0312 81.1924V41.55C48.0313 40.515 48.3123 39.4993 48.8442 38.6115C49.3761 37.7236 50.1391 36.9967 51.0516 36.5083C51.9642 36.0199 52.9922 35.7884 54.0261 35.8383C55.0599 35.8883 56.0608 36.2179 56.922 36.792V36.7996Z" fill="#FFD937"/>
</svg>
