<svg width="119" height="17" viewBox="0 0 119 17" fill="none" xmlns="http://www.w3.org/2000/svg">
<path d="M5.39196 17V9.71352H7.85012L8.21551 6.86063H5.39196V5.04345C5.39196 4.22021 5.62133 3.65657 6.80285 3.65657H8.29997V1.11306C7.57154 1.03499 6.83934 0.997299 6.10674 1.00015C3.93395 1.00015 2.44216 2.32658 2.44216 4.76163V6.85529H0V9.70819H2.4475V17H5.39196Z" fill="black"/>
<path d="M35.998 3.89523C33.7265 3.89523 31.8932 5.72847 31.8932 8C31.8932 10.2715 33.7265 12.1048 35.998 12.1048C38.2695 12.1048 40.1028 10.2715 40.1028 8C40.1028 5.72847 38.2695 3.89523 35.998 3.89523ZM35.998 10.6678C34.529 10.6678 33.3302 9.46899 33.3302 8C33.3302 6.53101 34.529 5.3322 35.998 5.3322C37.467 5.3322 38.6658 6.53101 38.6658 8C38.6658 9.46899 37.467 10.6678 35.998 10.6678ZM40.2709 2.77047C39.7405 2.77047 39.3122 3.19876 39.3122 3.72911C39.3122 4.25947 39.7405 4.68776 40.2709 4.68776C40.8012 4.68776 41.2295 4.26147 41.2295 3.72911C41.2297 3.60318 41.205 3.47845 41.1569 3.36207C41.1088 3.24569 41.0382 3.13995 40.9491 3.0509C40.8601 2.96185 40.7543 2.89124 40.6379 2.84312C40.5216 2.795 40.3968 2.77031 40.2709 2.77047ZM43.9994 8C43.9994 6.89525 44.0094 5.80051 43.9474 4.69777C43.8853 3.4169 43.5931 2.28014 42.6565 1.3435C41.7179 0.404868 40.5831 0.114672 39.3022 0.0526304C38.1975 -0.0094115 37.1027 0.000595291 36 0.000595291C34.8953 0.000595291 33.8005 -0.0094115 32.6978 0.0526304C31.4169 0.114672 30.2801 0.40687 29.3435 1.3435C28.4049 2.28214 28.1147 3.4169 28.0526 4.69777C27.9906 5.80252 28.0006 6.89725 28.0006 8C28.0006 9.10275 27.9906 10.1995 28.0526 11.3022C28.1147 12.5831 28.4069 13.7199 29.3435 14.6565C30.2821 15.5951 31.4169 15.8853 32.6978 15.9474C33.8025 16.0094 34.8973 15.9994 36 15.9994C37.1047 15.9994 38.1995 16.0094 39.3022 15.9474C40.5831 15.8853 41.7199 15.5931 42.6565 14.6565C43.5951 13.7179 43.8853 12.5831 43.9474 11.3022C44.0114 10.1995 43.9994 9.10475 43.9994 8ZM42.2382 12.7192C42.0921 13.0834 41.916 13.3556 41.6338 13.6358C41.3516 13.918 41.0814 14.0941 40.7172 14.2402C39.6645 14.6585 37.1648 14.5644 35.998 14.5644C34.8312 14.5644 32.3295 14.6585 31.2768 14.2422C30.9126 14.0961 30.6404 13.92 30.3602 13.6378C30.078 13.3556 29.9019 13.0854 29.7558 12.7212C29.3395 11.6665 29.4336 9.16679 29.4336 8C29.4336 6.83321 29.3395 4.33152 29.7558 3.27881C29.9019 2.91456 30.078 2.64238 30.3602 2.36219C30.6424 2.082 30.9126 1.90388 31.2768 1.75778C32.3295 1.3415 34.8312 1.43556 35.998 1.43556C37.1648 1.43556 39.6665 1.3415 40.7192 1.75778C41.0834 1.90388 41.3556 2.08 41.6358 2.36219C41.918 2.64438 42.0941 2.91456 42.2402 3.27881C42.6565 4.33152 42.5624 6.83321 42.5624 8C42.5624 9.16679 42.6565 11.6665 42.2382 12.7192Z" fill="black"/>
<path d="M114.559 9.904V12.8616H112.845V10.1016C112.845 9.4088 112.597 8.936 111.976 8.936C111.503 8.936 111.22 9.2544 111.096 9.5632C111.051 9.6736 111.039 9.8272 111.039 9.9808V12.8616H109.324C109.324 12.8616 109.347 8.188 109.324 7.704H111.039V8.4344L111.028 8.4512H111.039V8.4352C111.267 8.0832 111.674 7.5824 112.585 7.5824C113.713 7.5824 114.559 8.32 114.559 9.904ZM107.53 5.2168C106.943 5.2168 106.559 5.6024 106.559 6.108C106.559 6.604 106.932 7 107.507 7H107.519C108.117 7 108.489 6.6032 108.489 6.108C108.478 5.6024 108.117 5.2168 107.53 5.2168ZM106.661 12.8616H108.376V7.704H106.661V12.8616Z" fill="black"/>
<path d="M105.759 2.6C105.335 2.6 104.928 2.76857 104.628 3.06863C104.328 3.36869 104.159 3.77565 104.159 4.2V13.8C104.159 14.2243 104.328 14.6313 104.628 14.9314C104.928 15.2314 105.335 15.4 105.759 15.4H115.359C115.784 15.4 116.191 15.2314 116.491 14.9314C116.791 14.6313 116.959 14.2243 116.959 13.8V4.2C116.959 3.77565 116.791 3.36869 116.491 3.06863C116.191 2.76857 115.784 2.6 115.359 2.6H105.759ZM105.759 1H115.359C116.208 1 117.022 1.33714 117.622 1.93726C118.222 2.53737 118.559 3.35131 118.559 4.2V13.8C118.559 14.6487 118.222 15.4626 117.622 16.0627C117.022 16.6629 116.208 17 115.359 17H105.759C104.911 17 104.097 16.6629 103.497 16.0627C102.896 15.4626 102.559 14.6487 102.559 13.8V4.2C102.559 3.35131 102.896 2.53737 103.497 1.93726C104.097 1.33714 104.911 1 105.759 1Z" fill="black"/>
<path d="M82.5205 3.35764C82.4818 3.26433 82.4164 3.18458 82.3324 3.12847C82.2484 3.07236 82.1497 3.04241 82.0487 3.0424H79.3599C79.071 2.50903 78.6617 2.0504 78.1644 1.70298C77.6671 1.35557 77.0957 1.12893 76.4955 1.0411C75.8953 0.953266 75.2829 1.00666 74.7069 1.19702C74.131 1.38739 73.6074 1.70949 73.1777 2.13771C72.8071 2.49905 72.5125 2.93088 72.3113 3.40777C72.1101 3.88466 72.0063 4.39699 72.0061 4.91459L72.0055 5.65281C68.3975 4.79953 65.4194 1.86128 65.3884 1.83022C65.3225 1.76432 65.2398 1.71771 65.1493 1.69545C65.0588 1.67318 64.964 1.6761 64.875 1.70389C64.7861 1.73168 64.7064 1.78329 64.6447 1.85311C64.583 1.92293 64.5415 2.00832 64.5249 2.10001C63.7889 6.14797 65.0013 8.85293 66.1481 10.4092C66.7604 11.2441 67.511 11.9682 68.3673 12.5502C67.0462 14.1473 64.8713 14.9812 64.848 14.9899C64.776 15.0169 64.711 15.0599 64.6579 15.1155C64.6048 15.1712 64.5649 15.2381 64.5413 15.3113C64.5177 15.3845 64.5109 15.4621 64.5215 15.5383C64.5321 15.6145 64.5597 15.6873 64.6024 15.7513C64.6875 15.8791 65.5189 17 68.4316 17C74.3671 17 79.3227 12.4146 79.7985 6.52542L82.4098 3.91416C82.4812 3.84273 82.5299 3.75174 82.5496 3.65268C82.5693 3.55362 82.5591 3.45095 82.5205 3.35764ZM78.9419 5.93775C78.8541 6.02558 78.8013 6.1424 78.7934 6.26635C78.4464 11.7125 73.8949 15.9787 68.4316 15.9787C67.2443 15.9787 66.4947 15.7737 66.0431 15.5704C67.0054 15.0866 68.5732 14.1337 69.5373 12.6874C69.5772 12.6272 69.6039 12.5593 69.6157 12.488C69.6275 12.4167 69.6241 12.3437 69.6056 12.2739C69.5872 12.204 69.5541 12.1389 69.5087 12.0827C69.4632 12.0266 69.4064 11.9807 69.3419 11.948C69.3291 11.9416 68.0447 11.2799 66.9415 9.76409C65.6272 7.95803 65.1078 5.75724 65.3927 3.21168C66.6331 4.26735 69.3201 6.2615 72.4316 6.78031C72.5047 6.7925 72.5796 6.78861 72.6511 6.76893C72.7225 6.74925 72.7889 6.71425 72.8454 6.66636C72.902 6.61846 72.9475 6.55882 72.9787 6.49158C73.0099 6.42434 73.0261 6.35112 73.0262 6.27699L73.0273 4.91544V4.91493C73.0345 4.14331 73.3468 3.40589 73.8959 2.86372C74.445 2.32155 75.1863 2.01869 75.9579 2.02128C76.5147 2.02899 77.0574 2.1968 77.5213 2.50467C77.9853 2.81255 78.3507 3.24746 78.5741 3.75747C78.6139 3.84847 78.6793 3.92589 78.7624 3.98028C78.8455 4.03467 78.9426 4.06365 79.0419 4.06369H80.8159L78.9419 5.93775Z" fill="black"/>
</svg>
