<svg width="41" height="30" viewBox="0 0 41 30" fill="none" xmlns="http://www.w3.org/2000/svg">
<path d="M40.5 25.5H0" stroke="black" stroke-linecap="round"/>
<path d="M30.5 29.5H0.5" stroke="black" stroke-linecap="round"/>
<path fill-rule="evenodd" clip-rule="evenodd" d="M28.6633 1.26893L28 0C27.8616 0.467337 27.7241 0.923333 27.5871 1.36877C26.1769 5.95537 24.8239 9.42232 23.0856 12.622L18.7769 5.15908L18.1077 4C17.9657 4.43397 17.8248 4.85599 17.6845 5.26699C15.3394 12.1356 13.1519 15.9269 8.62277 21C8.3303 21.3276 8.02806 21.6605 7.71539 22H9.06886H16.5H17.7981H27.3453H28.5H38.3716H39.5L38.9773 21L28.6633 1.26893ZM26.7679 21H18.6083C20.3866 18.7736 21.8389 16.7314 23.0913 14.6319L26.7679 21ZM23.6695 13.6333L27.9226 21H37.8489L28.2431 2.62361C26.8404 7.05074 25.4574 10.4492 23.6695 13.6333ZM22.5166 13.6364C21.1099 16.0657 19.4466 18.3902 17.3239 21H9.95627C11.9517 18.7097 13.499 16.6257 14.8185 14.3417C16.1606 12.0187 17.2524 9.51391 18.3457 6.41227L22.5166 13.6364Z" fill="black"/>
</svg>
