<svg width="32" height="30" viewBox="0 0 32 30" fill="none" xmlns="http://www.w3.org/2000/svg">
<path d="M12.0521 3.91659C9.00328 4.96655 6.65844 7.07934 5.30444 9.67233L3.07903 8.64302C2.13687 8.20724 1.1211 9.09217 1.46913 10.0455L3.65117 16.0225C3.86691 16.6135 4.53645 16.9232 5.14665 16.7142L11.3181 14.6009C12.3024 14.2639 12.3746 12.9425 11.4325 12.5067L8.83096 11.3034C9.78142 9.52842 11.3594 8.18514 13.3066 7.49997C17.5472 6.00784 22.3498 8.11391 23.8668 12.3828C25.306 16.4324 23.163 20.9779 18.8441 22.4568C16.9508 23.1051 14.9225 23.0634 13.0748 22.348C12.7888 22.2372 12.4631 22.3614 12.3303 22.6307L11.15 25.0242C11.0051 25.3182 11.1454 25.6686 11.456 25.7939C14.127 26.8716 17.2034 27.0313 20.1462 26.0236C26.4515 23.8645 29.7557 17.1637 27.5264 11.0571C25.2997 4.95749 18.3461 1.74902 12.0521 3.91659Z" fill="black"/>
</svg>
