<svg width="22" height="22" viewBox="0 0 22 22" fill="none" xmlns="http://www.w3.org/2000/svg">
<path d="M10.946 5.8085C7.84058 5.8085 5.33569 8.23449 5.33569 11.2421C5.33569 14.2498 7.84058 16.6758 10.946 16.6758C14.0515 16.6758 16.5564 14.2498 16.5564 11.2421C16.5564 8.23449 14.0515 5.8085 10.946 5.8085ZM10.946 14.7747C8.93921 14.7747 7.29858 13.1905 7.29858 11.2421C7.29858 9.29378 8.93433 7.70956 10.946 7.70956C12.9578 7.70956 14.5935 9.29378 14.5935 11.2421C14.5935 13.1905 12.9529 14.7747 10.946 14.7747ZM18.0945 5.58624C18.0945 6.29086 17.5085 6.85361 16.7859 6.85361C16.0584 6.85361 15.4773 6.28613 15.4773 5.58624C15.4773 4.88634 16.0632 4.31886 16.7859 4.31886C17.5085 4.31886 18.0945 4.88634 18.0945 5.58624ZM21.8103 6.87253C21.7273 5.17481 21.3269 3.67099 20.0427 2.43198C18.7634 1.19298 17.2107 0.805204 15.4578 0.720081C13.6511 0.620772 8.23608 0.620772 6.42944 0.720081C4.6814 0.800475 3.12866 1.18825 1.84448 2.42726C0.560303 3.66626 0.164795 5.17008 0.0769043 6.8678C-0.0256348 8.61754 -0.0256348 13.862 0.0769043 15.6117C0.159912 17.3095 0.560303 18.8133 1.84448 20.0523C3.12866 21.2913 4.67651 21.6791 6.42944 21.7642C8.23608 21.8635 13.6511 21.8635 15.4578 21.7642C17.2107 21.6838 18.7634 21.296 20.0427 20.0523C21.322 18.8133 21.7224 17.3095 21.8103 15.6117C21.9128 13.862 21.9128 8.62226 21.8103 6.87253ZM19.4763 17.4892C19.0955 18.4161 18.3582 19.1301 17.3962 19.5037C15.9558 20.057 12.5378 19.9293 10.946 19.9293C9.35425 19.9293 5.9314 20.0523 4.49585 19.5037C3.53882 19.1349 2.80151 18.4208 2.41577 17.4892C1.84448 16.0941 1.97632 12.7838 1.97632 11.2421C1.97632 9.70048 1.84937 6.38544 2.41577 4.99511C2.79663 4.06822 3.53394 3.35414 4.49585 2.98055C5.93628 2.42726 9.35425 2.55494 10.946 2.55494C12.5378 2.55494 15.9607 2.43198 17.3962 2.98055C18.3533 3.34941 19.0906 4.06349 19.4763 4.99511C20.0476 6.39017 19.9158 9.70048 19.9158 11.2421C19.9158 12.7838 20.0476 16.0988 19.4763 17.4892Z" fill="black"/>
</svg>
