<svg width="25" viewBox="0 0 25 0" fill="none" xmlns="http://www.w3.org/2000/svg">
<path d="M0 -0.5C-0.276142 -0.5 -0.5 -0.276142 -0.5 0C-0.5 0.276142 -0.276142 0.5 0 0.5V-0.5ZM24.6915 0.353553C24.8868 0.158291 24.8868 -0.158291 24.6915 -0.353553L21.5096 -3.53553C21.3143 -3.7308 20.9977 -3.7308 20.8024 -3.53553C20.6072 -3.34027 20.6072 -3.02369 20.8024 -2.82843L23.6309 0L20.8024 2.82843C20.6072 3.02369 20.6072 3.34027 20.8024 3.53553C20.9977 3.7308 21.3143 3.7308 21.5096 3.53553L24.6915 0.353553ZM0 0.5H24.338V-0.5H0V0.5Z" fill="black"/>
</svg>
