<svg width="21" viewBox="0 0 21 0" fill="none" xmlns="http://www.w3.org/2000/svg">
<path d="M0 -0.5C-0.276142 -0.5 -0.5 -0.276142 -0.5 0C-0.5 0.276142 -0.276142 0.5 0 0.5V-0.5ZM21.3536 0.353553C21.5488 0.158291 21.5488 -0.158291 21.3536 -0.353553L18.1716 -3.53553C17.9763 -3.7308 17.6597 -3.7308 17.4645 -3.53553C17.2692 -3.34027 17.2692 -3.02369 17.4645 -2.82843L20.2929 0L17.4645 2.82843C17.2692 3.02369 17.2692 3.34027 17.4645 3.53553C17.6597 3.7308 17.9763 3.7308 18.1716 3.53553L21.3536 0.353553ZM0 0.5H21V-0.5H0V0.5Z" fill="white"/>
</svg>
