<svg width="25" height="21" viewBox="0 0 25 21" fill="none" xmlns="http://www.w3.org/2000/svg">
<path d="M22.4302 5.54646C22.446 5.76154 22.446 5.97666 22.446 6.19174C22.446 12.7518 17.2906 20.3106 7.86801 20.3106C4.96508 20.3106 2.26841 19.4963 0 18.0829C0.412451 18.129 0.808984 18.1444 1.2373 18.1444C3.63257 18.1444 5.83754 17.3609 7.59833 16.0243C5.3458 15.9781 3.4581 14.5494 2.80771 12.5829C3.125 12.6289 3.44223 12.6597 3.77539 12.6597C4.2354 12.6597 4.69545 12.5982 5.12373 12.4907C2.77602 12.0298 1.01518 10.0325 1.01518 7.62051V7.55908C1.69726 7.92781 2.49048 8.15825 3.33115 8.18894C1.95107 7.29785 1.04692 5.77691 1.04692 4.05621C1.04692 3.13443 1.30068 2.28945 1.74487 1.55201C4.26709 4.56321 8.05834 6.52967 12.3096 6.7448C12.2303 6.37608 12.1827 5.99203 12.1827 5.60794C12.1827 2.87325 14.4669 0.645599 17.3064 0.645599C18.7816 0.645599 20.1141 1.24477 21.05 2.21265C22.208 1.99758 23.3184 1.58275 24.3019 1.01432C23.9212 2.16659 23.1122 3.13448 22.0494 3.74897C23.0805 3.64148 24.0799 3.36488 24.9999 2.98083C24.302 3.96404 23.4295 4.83971 22.4302 5.54646Z" fill="black"/>
</svg>
