<svg width="24" height="17" viewBox="0 0 24 17" fill="none" xmlns="http://www.w3.org/2000/svg">
<path d="M23.2084 3.10823C22.9358 2.11408 22.1326 1.33113 21.1128 1.06542C19.2642 0.582596 11.8519 0.582596 11.8519 0.582596C11.8519 0.582596 4.43954 0.582596 2.59097 1.06542C1.57114 1.33117 0.767925 2.11408 0.495313 3.10823C0 4.91017 0 8.66976 0 8.66976C0 8.66976 0 12.4293 0.495313 14.2313C0.767925 15.2254 1.57114 15.9758 2.59097 16.2415C4.43954 16.7243 11.8519 16.7243 11.8519 16.7243C11.8519 16.7243 19.2642 16.7243 21.1128 16.2415C22.1326 15.9758 22.9358 15.2254 23.2084 14.2313C23.7037 12.4293 23.7037 8.66976 23.7037 8.66976C23.7037 8.66976 23.7037 4.91017 23.2084 3.10823ZM9.4276 12.0832V5.25633L15.6229 8.66984L9.4276 12.0832Z" fill="black"/>
</svg>
