<svg width="24" viewBox="0 0 24 0" fill="none" xmlns="http://www.w3.org/2000/svg">
<path d="M0 -0.5C-0.276142 -0.5 -0.5 -0.276142 -0.5 0C-0.5 0.276142 -0.276142 0.5 0 0.5V-0.5ZM23.5177 0.353553C23.7129 0.158291 23.7129 -0.158291 23.5177 -0.353553L20.3357 -3.53553C20.1404 -3.7308 19.8239 -3.7308 19.6286 -3.53553C19.4333 -3.34027 19.4333 -3.02369 19.6286 -2.82843L22.457 0L19.6286 2.82843C19.4333 3.02369 19.4333 3.34027 19.6286 3.53553C19.8239 3.7308 20.1404 3.7308 20.3357 3.53553L23.5177 0.353553ZM0 0.5H23.1641V-0.5H0V0.5Z" fill="black"/>
</svg>
